<?xml version="1.0" encoding="UTF-8"?>
<svg id="Layer_1" data-name="Layer 1" xmlns="http://www.w3.org/2000/svg" viewBox="0 0 216 46.96">
  <defs>
    <style>
      .cls-1 {
        fill: #231f20;
      }
    </style>
  </defs>
  <path class="cls-1" d="m0,4.52h16.47v3.83H0v4.52h16.47v3.61H0v4.52h21V0H0v4.52Zm16.47,20.48v8.24H0v4.52h16.47v8.24h4.53v-21h-4.53Z"/>
  <path class="cls-1" d="m0,25h13v5H0v-5Z"/>
  <path class="cls-1" d="m25,21h21v-4.52h-16.47v-3.83h16.47v-4.52h-16.47v-3.61h16.47V0h-21v21Zm74,0h21v-4.52h-16.47v-3.83h16.47v-4.52h-16.47v-3.61h16.47V0h-21v21Zm-28-16.48c0-2.49-2.03-4.52-4.52-4.52h-16.48v21h16.48c2.5,0,4.52-2.03,4.52-4.52,0,0,0-11.95,0-11.95Zm-16.47,11.95V4.52h11.94v11.95h-11.94ZM211.47,0v14.68l-10.53-14.68h-5.94v21h4.53V6.21l10.79,14.79h5.68V0h-4.53Zm-115.47,4.52V0h-16.48c-2.5,0-4.52,2.03-4.52,4.52v11.95c0,2.5,2.03,4.52,4.52,4.52h16.48v-12.87h-12.4v4.52h7.86v3.83h-11.94V4.52h16.47Zm96,0c0-2.49-2.03-4.52-4.52-4.52h-11.96c-2.5,0-4.52,2.03-4.52,4.52v11.95c0,2.5,2.03,4.52,4.52,4.52h11.96c2.5,0,4.52-2.03,4.52-4.52V4.52Zm-4.53,11.95h-11.94V4.52h11.94v11.95ZM147,0v4.52h8.24v16.48h4.53V4.52h8.23V0h-21Zm-7.62,20.99h5.62l-4.57-6.69c2.48-.01,4.48-2.03,4.48-4.52v-5.27c0-2.49-2.02-4.52-4.5-4.52h-16.41v21h4.51v-6.69h6.29l4.57,6.69h0Zm-10.86-11.21v-5.27h11.89v5.27h-11.89s0,0,0,0Z"/>
  <path class="cls-1" d="m164.88,46.96h5.75l-4.68-6.94c2.53-.01,4.58-2.11,4.58-4.69v-5.47c0-2.59-2.06-4.7-4.6-4.7h-16.79v21.8h4.62v-6.94h6.44s4.68,6.94,4.68,6.94Zm-11.11-11.63v-5.47h12.17v5.47h-12.17ZM25.27,46.96h21.4v-4.69h-16.78v-12.41h16.78v-4.7h-21.4v21.8Zm24.78,0h21.4v-4.69h-16.78v-3.97h16.78v-4.69h-16.78v-3.75h16.78v-4.7h-21.4v21.8Zm74.33,0h21.4v-4.69h-16.78v-3.97h16.78v-4.69h-16.78v-3.75h16.78v-4.7h-21.4v21.8Zm-32.77-6.56l-10.73-15.24h-6.05v21.8h4.62v-15.35l11,15.35h5.79v-21.8h-4.62v15.24Zm7.99-15.24v4.7h8.39v17.1h4.62v-17.1h8.39v-4.7h-21.4Z"/>
</svg>