 <svg version="1.0" xmlns="http://www.w3.org/2000/svg" width="700.000000pt" height="495.000000pt" viewBox="0 0 700.000000 495.000000" preserveAspectRatio="xMidYMid meet">
<metadata>
Created by potrace 1.12, written by Peter Selinger 2001-2015
</metadata>
<g transform="translate(0.000000,495.000000) scale(0.100000,-0.100000)" fill="#000000" stroke="none">
<path d="M1640 4890 c-33 -8 -60 -33 -60 -55 0 -20 50 -108 78 -139 15 -16
122 -111 237 -213 196 -171 281 -261 272 -287 -2 -6 -27 -24 -55 -39 -29 -16
-52 -35 -52 -43 0 -8 11 -37 25 -63 19 -38 62 -82 182 -186 87 -76 162 -143
167 -150 6 -8 -13 -50 -56 -126 -88 -154 -97 -172 -163 -339 -31 -80 -69 -168
-85 -196 -42 -76 -119 -182 -143 -199 -42 -29 -31 11 32 123 207 369 275 653
199 834 -38 90 -41 91 -175 10 -151 -90 -221 -142 -307 -228 -217 -218 -345
-531 -350 -856 -2 -127 -2 -128 -31 -159 -33 -34 -128 -109 -138 -109 -4 0 -7
6 -7 14 0 8 -8 24 -18 36 l-19 23 -26 -35 c-15 -19 -47 -92 -73 -163 -45 -124
-46 -130 -34 -179 10 -43 9 -57 -4 -88 -17 -40 -21 -104 -8 -112 5 -3 14 22
20 55 12 67 52 143 83 159 20 11 20 10 12 -52 -26 -206 21 -371 112 -397 50
-14 99 3 134 46 16 19 33 33 39 29 27 -17 20 -168 -10 -188 -39 -26 -179 40
-259 122 -49 50 -82 103 -103 163 -3 10 -11 15 -17 11 -8 -5 -10 -39 -7 -110
4 -98 7 -107 37 -149 53 -74 71 -128 81 -238 5 -56 12 -111 15 -122 4 -14 -6
-37 -34 -74 -23 -30 -41 -58 -41 -63 0 -4 15 -8 34 -8 71 0 94 -11 120 -54 14
-24 32 -49 42 -56 14 -13 19 -11 38 15 56 78 82 83 135 26 20 -21 50 -46 68
-55 31 -15 32 -15 52 10 11 14 23 42 27 61 6 32 13 38 81 71 l74 35 101 -18
c139 -24 316 -17 448 20 251 69 448 190 693 425 l126 121 7 -37 c11 -61 -4
-174 -37 -279 -50 -161 -51 -266 -4 -431 5 -14 -2 -31 -22 -54 -23 -28 -28
-43 -28 -88 0 -44 4 -57 24 -73 33 -27 97 -25 155 6 26 14 52 25 59 25 21 -1
86 -56 123 -104 64 -84 89 -82 130 11 21 46 55 83 77 83 4 0 29 -20 55 -44 49
-45 88 -69 133 -79 34 -8 54 13 71 76 11 42 10 54 -4 94 l-17 46 44 56 c48 63
73 110 101 191 16 46 19 84 19 230 0 165 -2 180 -29 260 -66 198 -150 323
-363 541 -90 92 -163 174 -163 182 0 42 232 217 286 217 11 0 45 -23 77 -50
33 -28 123 -92 201 -144 150 -98 176 -123 176 -168 0 -16 -34 -113 -75 -217
-98 -245 -112 -303 -97 -389 17 -99 61 -180 140 -253 92 -86 96 -93 102 -179
4 -67 7 -75 26 -78 12 -2 61 17 109 42 47 26 93 46 102 46 8 0 38 -25 66 -55
66 -73 82 -71 124 15 18 36 36 65 40 65 4 -1 34 -9 66 -19 61 -19 147 -15 147
5 0 6 -15 31 -32 56 -32 43 -32 45 -13 56 11 6 43 32 71 59 90 85 132 202 164
456 7 56 17 102 22 102 16 0 90 -74 113 -114 13 -23 34 -75 47 -116 19 -64 23
-97 23 -220 0 -135 -13 -235 -34 -269 -5 -8 -63 -23 -147 -38 -283 -49 -641
-149 -809 -227 -62 -29 -145 -99 -132 -113 3 -2 60 12 128 32 155 46 298 58
329 30 41 -37 17 -83 -119 -224 -34 -35 -60 -66 -57 -68 2 -2 57 18 122 46
180 75 313 107 350 83 9 -5 9 -16 0 -42 -8 -25 -25 -44 -61 -67 -140 -90 -146
-97 -94 -108 38 -8 95 -1 177 24 34 11 64 16 66 12 2 -3 -43 -94 -100 -200
-58 -106 -103 -198 -101 -204 2 -6 70 66 152 159 82 93 159 177 171 186 25 20
70 39 77 32 10 -10 -17 -114 -54 -213 -44 -118 -42 -111 -30 -111 5 0 19 21
30 46 31 64 107 143 166 170 78 37 83 22 40 -106 -19 -58 -52 -140 -72 -182
-34 -74 -38 -109 -9 -77 22 22 324 543 383 659 71 142 84 194 90 380 4 141 8
165 39 263 41 129 51 225 34 338 -49 339 -298 733 -754 1197 -72 72 -124 132
-117 132 25 0 182 -90 331 -190 185 -124 175 -118 160 -89 -7 13 -74 85 -149
160 -159 158 -337 294 -630 482 -111 71 -214 144 -230 163 -36 40 -55 104 -46
151 5 29 10 33 38 33 45 0 214 -42 322 -80 107 -38 326 -148 449 -225 49 -30
91 -53 94 -50 12 11 -50 62 -193 158 -167 113 -219 160 -264 238 -36 63 -40
116 -12 150 18 22 27 24 103 23 96 -1 130 -13 482 -168 120 -53 222 -96 227
-96 26 0 -25 45 -234 208 -288 225 -308 244 -315 310 -22 234 255 309 721 196
153 -37 156 -21 13 60 -96 55 -664 247 -801 271 -190 34 -482 35 -810 5 -349
-33 -591 -122 -611 -225 -15 -83 58 -202 193 -315 176 -147 187 -175 105 -262
-35 -38 -72 -36 -118 4 -47 42 -64 83 -64 156 0 77 -10 85 -97 80 -57 -3 -85
-12 -168 -53 -110 -54 -154 -60 -203 -29 -16 11 -97 75 -179 145 -377 317
-635 476 -938 578 -212 70 -449 106 -545 81z m925 -2699 c173 -99 257 -318
185 -486 -43 -100 -173 -193 -350 -250 -73 -24 -107 -28 -235 -32 -166 -5
-289 12 -312 44 -28 37 -8 225 33 318 l18 40 9 -45 c31 -152 69 -216 158 -265
48 -27 63 -30 139 -30 98 0 141 18 201 82 102 109 159 313 130 467 -9 48 -29
100 -69 179 -9 17 47 4 93 -22z m-147 -68 c12 -13 22 -33 22 -44 0 -32 -53
-79 -89 -79 -43 0 -84 39 -84 78 0 76 96 105 151 45z m2232 -953 c-6 -29 -10
-55 -10 -58 0 -2 -7 1 -15 8 -19 16 -19 51 1 98 13 31 17 34 25 21 5 -11 5
-37 -1 -69z m-240 37 c0 -22 -43 -56 -79 -63 -31 -7 -33 -6 -22 14 24 46 101
83 101 49z m-3200 -2 c0 -2 -13 -11 -30 -20 -24 -13 -30 -13 -30 -2 0 8 3 17
7 20 7 8 53 10 53 2z m106 -61 c-8 -58 -14 -68 -32 -53 -19 15 -18 64 2 83 28
28 37 19 30 -30z m243 -23 c0 -39 -8 -27 -23 33 -6 26 -5 28 8 17 10 -8 16
-28 15 -50z m1646 -174 c17 -13 13 -18 -44 -65 -34 -29 -66 -52 -72 -52 -15 0
-10 54 7 79 9 13 31 29 48 37 39 17 38 17 61 1z m570 -53 c25 -10 47 -62 49
-115 1 -58 -10 -73 -43 -56 -35 18 -61 57 -67 102 l-6 40 42 -62 c24 -35 47
-63 51 -63 13 0 12 5 -26 80 -19 38 -35 72 -35 75 0 7 15 6 35 -1z m-291 -30
c0 -10 -4 -36 -8 -56 -8 -42 9 -54 23 -16 8 23 8 23 15 2 3 -12 1 -39 -6 -60
-16 -47 -42 -51 -70 -13 -26 35 -25 90 2 134 23 37 46 42 44 9z"></path>
</g>
</svg>