<?xml version="1.0" encoding="utf-8"?>
<!-- Generator: Adobe Illustrator 27.1.1, SVG Export Plug-In . SVG Version: 6.00 Build 0)  -->
<svg version="1.1" id="Layer_1" xmlns="http://www.w3.org/2000/svg" xmlns:xlink="http://www.w3.org/1999/xlink" x="0px" y="0px"
	 viewBox="0 0 216 47" style="enable-background:new 0 0 216 47;" xml:space="preserve">
<style type="text/css">
	.st0{fill:#231F20;}
</style>
<g>
	<g>
		<g>
			<g>
				<path class="st0" d="M0,4.5h16.5v3.8H0v4.5h16.5v3.6H0V21h21V0H0V4.5z M16.5,25v8.2H0v4.5h16.5V46h1.8H21V25h-2.7H16.5z"/>
				<path class="st0" d="M0,25h13v5H0V25z"/>
				<path class="st0" d="M25,21h21v-4.5H29.5v-3.8H46V8.1H29.5V4.5H46V0H25V21z M99,21h21v-4.5h-16.5v-3.8H120V8.1h-16.5V4.5H120V0
					H99V21z M71,4.5C71,2,69,0,66.5,0H50v21h16.5c2.5,0,4.5-2,4.5-4.5C71,16.5,71,4.5,71,4.5z M54.5,16.5v-12h11.9v12H54.5z
					 M211.5,0v14.7L200.9,0H195v21h4.5V6.2L210.3,21h5.7V0H211.5z M96,4.5V0H79.5C77,0,75,2,75,4.5v12c0,2.5,2,4.5,4.5,4.5H96V8.1
					H83.6v4.5h7.9v3.8H79.5v-12L96,4.5L96,4.5z M192,4.5c0-2.5-2-4.5-4.5-4.5h-12C173,0,171,2,171,4.5v12c0,2.5,2,4.5,4.5,4.5h12
					c2.5,0,4.5-2,4.5-4.5V4.5z M187.5,16.5h-11.9v-12h11.9V16.5z M147,0v4.5h8.2V21h4.5V4.5h8.2V0H147z M139.4,21h5.6l-4.6-6.7
					c2.5,0,4.5-2,4.5-4.5V4.5c0-2.5-2-4.5-4.5-4.5H124v21h4.5v-6.7h6.3L139.4,21L139.4,21z M128.5,9.8V4.5h11.9v5.3L128.5,9.8
					L128.5,9.8z"/>
				<g>
					<path class="st0" d="M164.9,47h5.8L166,40c2.5,0,4.6-2.1,4.6-4.7v-5.5c0-2.6-2.1-4.7-4.6-4.7h-16.8V47h4.6V40h6.4
						C160.2,40,164.9,47,164.9,47z M153.8,35.3v-5.5h12.2v5.5H153.8z M25.3,47h21.4v-4.7H29.9V29.9h16.8v-4.7H25.3V47z M50,47h21.4
						v-4.7H54.7v-4h16.8v-4.7H54.7v-3.7h16.8v-4.7H50V47z M124.4,47h21.4v-4.7H129v-4h16.8v-4.7H129v-3.7h16.8v-4.7h-21.4V47z
						 M91.6,40.4L80.9,25.2h-1.4h-4.6V47h4.6V31.6l11,15.4h1.2h0h4.6V25.2h-4.6V40.4z M99.6,25.2v4.7h8.4V47h4.6V29.9h8.4v-4.7H99.6
						z"/>
				</g>
			</g>
		</g>
	</g>
</g>
</svg>
